# xmcd CD database file
#
# Track frame offsets:
#	150
#	20620
#	41410
#	67339
#	89955
#	110414
#	132993
#	154434
#	169975
#	189809
#	205219
#	224133
#
# Disc length: 3328 seconds
#
# Revision: 0
# Processed by: cddbd v1.5.2PL0 Copyright (c) Steve Scherf et al.
# Submitted via: jetAudio 7
#
DISCID=be0cfe0c
DTITLE=Roozbeh Nematollahi - Amoo Zanjir Baf
DYEAR=1900
DGENRE=Pop
TTITLE0=01 - Salam-o Alayk
TTITLE1=02 - Nafas Keshidan Sakhteh
TTITLE2=03 - Hejrani
TTITLE3=04 - Bi Setareh
TTITLE4=05 - Bandegi
TTITLE5=06 - Age Nabashi
TTITLE6=07 - Mashreghi-e Ashegh
TTITLE7=08 - Cheshm Be Rah
TTITLE8=09 - Karvan-e Zendegi
TTITLE9=10 - Gol-e Yas
TTITLE10=11 - Amoo Zanjir Baf
TTITLE11=12 - Darya ( Rimix )
EXTD=
EXTT0=
EXTT1=
EXTT2=
EXTT3=
EXTT4=
EXTT5=
EXTT6=
EXTT7=
EXTT8=
EXTT9=
EXTT10=
EXTT11=
PLAYORDER=
